<svg width="1386" height="820" viewBox="0 0 1386 820" fill="none" xmlns="http://www.w3.org/2000/svg">
<path fill-rule="evenodd" clip-rule="evenodd" d="M0 187.656V729.29L493.837 647.871C502.959 646.182 696.263 610.784 923.409 569.211L1336.4 493.625L1337.96 259.351L1339.52 25.0772L1322.89 22.6862C1313.74 21.3716 1262.85 17.119 1209.79 13.2325C1156.74 9.346 1110.61 5.45513 1107.3 4.58167C1103.98 3.71261 1164.37 2.8392 1241.49 2.64951L1381.72 2.30093L1380.16 258.681L1378.61 515.056L321.017 819.251H710.336H1322.89C1385.5 819.251 1381.72 819.251 1381.72 819.251C1381.72 792.494 1384.31 561.222 1385.5 259.351V0H1241.49H0V187.656ZM1293.38 259.131C1291.78 261.023 1297.42 262.576 1305.9 262.576C1314.38 262.576 1321.33 260.714 1321.33 258.438C1321.33 253.546 1297.6 254.133 1293.38 259.131Z" fill="#6A5AED"/>
</svg>
