<svg xmlns="http://www.w3.org/2000/svg" width="158" height="59" fill="none"><path fill="#6A5AED" d="M58 11H13a3 3 0 0 0-3 3v28.435a3 3 0 0 0 3 3h7.117a1 1 0 0 1 .597.198l8.05 5.99c1.32.982 3.194.04 3.194-1.604V28.442a3 3 0 0 0-1.47-2.582l-6.013-3.56c-.876-.519-.508-1.861.51-1.861h9.64a3 3 0 0 1 3 3v18.996a3 3 0 0 0 3 3H58a3 3 0 0 0 3-3V14a3 3 0 0 0-3-3ZM84.504 21V9.8h1.464l4.672 7.56h-.576l4.512-7.56H96V21h-1.472l.016-9.152.296.096-4 6.536h-1.16l-4.048-6.536.232-.096L85.88 21h-1.376Zm18.292.24c-.832 0-1.566-.173-2.2-.52a3.772 3.772 0 0 1-1.488-1.448c-.358-.624-.536-1.35-.536-2.176 0-.597.101-1.152.304-1.664.208-.512.496-.955.864-1.328a4.03 4.03 0 0 1 1.304-.872 4.214 4.214 0 0 1 1.632-.312c.634 0 1.2.112 1.696.336.501.224.914.539 1.24.944.33.4.568.872.712 1.416.144.539.173 1.125.088 1.76h-6.384c-.016.523.09.981.32 1.376.229.39.56.693.992.912.437.219.954.328 1.552.328.437 0 .864-.07 1.28-.208a3.295 3.295 0 0 0 1.104-.616l.624 1.096c-.256.208-.56.387-.912.536a5.73 5.73 0 0 1-1.088.328 5.704 5.704 0 0 1-1.104.112Zm-2.688-5.008h4.832c-.022-.661-.227-1.176-.616-1.544-.39-.373-.947-.56-1.672-.56-.704 0-1.286.187-1.744.56-.459.368-.726.883-.8 1.544Zm12.293 5.008c-.832 0-1.566-.173-2.2-.52a3.769 3.769 0 0 1-1.488-1.448c-.358-.624-.536-1.35-.536-2.176 0-.597.101-1.152.304-1.664.208-.512.496-.955.864-1.328a4.025 4.025 0 0 1 1.304-.872 4.214 4.214 0 0 1 1.632-.312c.634 0 1.2.112 1.696.336.501.224.914.539 1.24.944.33.4.568.872.712 1.416.144.539.173 1.125.088 1.76h-6.384c-.016.523.09.981.32 1.376.229.39.56.693.992.912.437.219.954.328 1.552.328.437 0 .864-.07 1.28-.208a3.295 3.295 0 0 0 1.104-.616l.624 1.096c-.256.208-.56.387-.912.536a5.73 5.73 0 0 1-1.088.328 5.704 5.704 0 0 1-1.104.112Zm-2.688-5.008h4.832c-.022-.661-.227-1.176-.616-1.544-.39-.373-.947-.56-1.672-.56-.704 0-1.286.187-1.744.56-.459.368-.726.883-.8 1.544Zm11.848 5.008c-.73 0-1.32-.213-1.768-.64-.442-.427-.664-1.085-.664-1.976v-7.768h1.472v2.304h2.296v1.248h-2.296v3.848c0 .597.107 1.019.32 1.264.219.24.536.36.952.36.187 0 .363-.021.528-.064a1.91 1.91 0 0 0 .448-.168l.304 1.208a3.483 3.483 0 0 1-1.592.384Zm-4.224-6.832V13.16h2.016v1.248h-2.016Zm8.23 6.592v-7.84h1.472V21h-1.472Zm.736-9.32c-.277 0-.517-.093-.72-.28a.924.924 0 0 1-.304-.712.9.9 0 0 1 .304-.704c.203-.187.443-.28.72-.28.283 0 .523.093.72.28a.9.9 0 0 1 .304.704.924.924 0 0 1-.304.712c-.197.187-.437.28-.72.28Zm3.76 9.32v-7.84h1.472v1.056c.336-.459.728-.79 1.176-.992a3.304 3.304 0 0 1 1.376-.304c.709 0 1.296.144 1.76.432.469.283.818.645 1.048 1.088.234.443.352.896.352 1.36V21h-1.472v-4.744c0-.592-.184-1.067-.552-1.424-.368-.363-.87-.544-1.504-.544-.416 0-.79.093-1.12.28-.326.181-.584.44-.776.776a2.297 2.297 0 0 0-.288 1.16V21h-1.472Zm13.52 3.6c-.506 0-1.016-.05-1.528-.152-.512-.101-1-.267-1.464-.496l.392-1.256c.422.197.848.344 1.28.44.432.096.856.144 1.272.144.944 0 1.664-.232 2.16-.696.502-.464.752-1.075.752-1.832v-1.704l.208.312c-.288.517-.69.941-1.208 1.272-.517.325-1.168.488-1.952.488-.8 0-1.501-.181-2.104-.544a3.874 3.874 0 0 1-1.408-1.48c-.336-.619-.504-1.312-.504-2.08 0-.57.096-1.104.288-1.6.192-.496.464-.93.816-1.304a3.741 3.741 0 0 1 1.272-.88 4.166 4.166 0 0 1 1.64-.312c.784 0 1.435.163 1.952.488.518.325.92.747 1.208 1.264l-.208.32v-1.84h1.384v7.232c0 1.323-.357 2.355-1.072 3.096-.709.747-1.768 1.12-3.176 1.12Zm.088-4.792c.523 0 .987-.115 1.392-.344.411-.23.731-.552.96-.968.23-.416.344-.91.344-1.48 0-.565-.114-1.056-.344-1.472a2.412 2.412 0 0 0-.96-.976 2.776 2.776 0 0 0-1.392-.344c-.528 0-.994.115-1.4.344a2.49 2.49 0 0 0-.96.976c-.229.416-.344.907-.344 1.472 0 .57.115 1.064.344 1.48.235.416.555.739.96.968.406.23.872.344 1.4.344ZM84.71 47V33h5.55c1.013 0 1.897.17 2.65.51.76.333 1.343.817 1.75 1.45.413.633.62 1.39.62 2.27 0 .693-.137 1.303-.41 1.83-.273.52-.65.953-1.13 1.3a4.618 4.618 0 0 1-1.64.75L96.02 47h-3.53l-3.37-5.32h-1.45V47h-2.96Zm2.96-7.71h2.2c.76 0 1.353-.153 1.78-.46.433-.313.65-.787.65-1.42 0-.653-.2-1.143-.6-1.47-.393-.327-.97-.49-1.73-.49h-2.3v3.84Zm17.998 8.01c-1.066 0-2.053-.183-2.96-.55a7.234 7.234 0 0 1-2.36-1.55 7.12 7.12 0 0 1-1.56-2.32 7.463 7.463 0 0 1-.55-2.88c0-1.04.184-2.003.55-2.89a7.12 7.12 0 0 1 1.56-2.32 7.105 7.105 0 0 1 2.36-1.54c.907-.367 1.894-.55 2.96-.55 1.067 0 2.05.187 2.95.56a7.134 7.134 0 0 1 2.36 1.56 7.21 7.21 0 0 1 2.13 5.18 7.334 7.334 0 0 1-.56 2.88 7.021 7.021 0 0 1-1.57 2.32 7.213 7.213 0 0 1-2.36 1.55c-.9.367-1.883.55-2.95.55Zm0-2.78c.62 0 1.194-.107 1.72-.32a4.107 4.107 0 0 0 1.38-.91c.394-.4.697-.877.91-1.43.22-.553.33-1.173.33-1.86 0-.913-.19-1.707-.57-2.38a4.056 4.056 0 0 0-1.55-1.58c-.653-.373-1.393-.56-2.22-.56-.613 0-1.186.107-1.72.32a4.127 4.127 0 0 0-1.38.91c-.386.393-.69.87-.91 1.43-.213.553-.32 1.173-.32 1.86 0 .913.19 1.71.57 2.39.38.673.897 1.197 1.55 1.57.654.373 1.39.56 2.21.56Zm17.739 2.78c-1.067 0-2.054-.183-2.96-.55a7.102 7.102 0 0 1-3.92-3.87 7.456 7.456 0 0 1-.55-2.88c0-1.04.183-2.003.55-2.89a7.102 7.102 0 0 1 1.56-2.32 7.085 7.085 0 0 1 2.36-1.54c.906-.367 1.893-.55 2.96-.55 1.066 0 2.05.187 2.95.56a7.155 7.155 0 0 1 2.36 1.56 7.164 7.164 0 0 1 1.57 2.33c.373.88.56 1.83.56 2.85a7.352 7.352 0 0 1-.56 2.88 7.051 7.051 0 0 1-1.57 2.32 7.234 7.234 0 0 1-2.36 1.55c-.9.367-1.884.55-2.95.55Zm0-2.78a4.54 4.54 0 0 0 1.72-.32 4.127 4.127 0 0 0 1.38-.91c.393-.4.696-.877.91-1.43.22-.553.33-1.173.33-1.86 0-.913-.19-1.707-.57-2.38a4.063 4.063 0 0 0-1.55-1.58c-.654-.373-1.394-.56-2.22-.56-.614 0-1.187.107-1.72.32a4.107 4.107 0 0 0-1.38.91c-.387.393-.69.87-.91 1.43-.214.553-.32 1.173-.32 1.86 0 .913.19 1.71.57 2.39.38.673.896 1.197 1.55 1.57.653.373 1.39.56 2.21.56ZM134.39 47V33h2.85l5.45 8.98-1.17.02 5.2-9h2.83v14h-2.87l.05-10.18.53.19-4.28 7.23h-2.02l-4.41-7.23.5-.19.05 10.18h-2.71Z"/></svg>
