<svg width="125" height="47" viewBox="0 0 125 47" fill="none" xmlns="http://www.w3.org/2000/svg">
<path d="M47 4H3C1.34315 4 0 5.34315 0 7V35.435C0 37.0918 1.34315 38.435 3 38.435H9.90654C10.1249 38.435 10.3372 38.5064 10.5111 38.6384L18.3186 44.5643C19.6356 45.5639 21.5278 44.6246 21.5278 42.9712V21.4243C21.5278 20.3738 20.9782 19.3997 20.079 18.8565L14.1834 15.295C13.3166 14.7714 13.6878 13.439 14.7004 13.439H24.0833C25.7402 13.439 27.0833 14.7822 27.0833 16.439V35.435C27.0833 37.0918 28.4265 38.435 30.0833 38.435H47C48.6569 38.435 50 37.0918 50 35.435V7C50 5.34315 48.6569 4 47 4Z" fill="#6A5AED"/>
<path d="M69.682 5.624C69.85 5.624 70.054 5.738 70.294 5.966C70.546 6.182 70.672 6.368 70.672 6.524C70.672 7.256 70.648 8.258 70.6 9.53C70.588 9.842 70.576 10.22 70.564 10.664C70.552 11.096 70.546 11.6 70.546 12.176C70.546 14 70.654 15.344 70.87 16.208C70.858 16.496 70.744 16.706 70.528 16.838C70.312 16.958 70.096 17.018 69.88 17.018C69.4 17.018 69.082 16.85 68.926 16.514C68.782 16.178 68.71 15.698 68.71 15.074C68.71 12.758 68.734 10.628 68.782 8.684C67.402 10.22 66.328 11.51 65.56 12.554C65.56 12.554 65.452 12.626 65.236 12.77C65.032 12.95 64.864 13.04 64.732 13.04C64.42 13.04 64.162 12.962 63.958 12.806C63.754 12.65 63.556 12.422 63.364 12.122L62.5 10.898C61.9 10.058 61.462 9.422 61.186 8.99C61.186 10.094 61.24 11.594 61.348 13.49C61.432 14.582 61.474 15.404 61.474 15.956C61.474 16.244 61.402 16.49 61.258 16.694C61.114 16.886 60.886 16.982 60.574 16.982C60.262 16.982 60.004 16.922 59.8 16.802C59.608 16.682 59.506 16.502 59.494 16.262C59.506 16.058 59.512 15.722 59.512 15.254C59.512 14.318 59.482 13.178 59.422 11.834L59.386 10.862L59.35 9.602C59.338 9.23 59.326 8.798 59.314 8.306C59.302 7.802 59.296 7.256 59.296 6.668C59.296 5.948 59.686 5.588 60.466 5.588C60.706 5.588 60.946 5.648 61.186 5.768C61.438 5.888 61.624 6.062 61.744 6.29C61.84 6.71 62.194 7.406 62.806 8.378C63.418 9.35 64.018 10.262 64.606 11.114C65.134 10.442 65.566 9.938 65.902 9.602C66.478 9.014 66.952 8.468 67.324 7.964C67.708 7.46 68.122 6.854 68.566 6.146C68.674 6.002 68.83 5.882 69.034 5.786C69.238 5.678 69.454 5.624 69.682 5.624ZM73.1404 13.184C73.1404 12.728 73.2244 12.272 73.3924 11.816C73.5604 11.348 73.7824 10.922 74.0584 10.538C74.3344 10.154 74.7724 9.842 75.3724 9.602C75.9724 9.35 76.5064 9.224 76.9744 9.224C77.4544 9.224 77.9404 9.29 78.4324 9.422C78.9364 9.554 79.2844 9.758 79.4764 10.034C79.9204 10.658 80.1424 11.27 80.1424 11.87C80.1424 12.194 80.0704 12.47 79.9264 12.698C79.7944 12.926 79.6024 13.172 79.3504 13.436C79.1464 13.652 78.8224 13.796 78.3784 13.868C77.9464 13.94 77.5144 13.976 77.0824 13.976C76.8064 13.976 76.4704 13.952 76.0744 13.904C75.6784 13.844 75.2944 13.772 74.9224 13.688C74.9464 13.928 75.0064 14.162 75.1024 14.39C75.1984 14.618 75.3124 14.792 75.4444 14.912C75.6844 15.14 75.9304 15.284 76.1824 15.344C76.4464 15.404 76.7824 15.434 77.1904 15.434C77.6224 15.434 78.0244 15.362 78.3964 15.218C78.6964 15.11 78.9424 15.056 79.1344 15.056C79.3624 15.056 79.5364 15.128 79.6564 15.272C79.7764 15.404 79.8364 15.578 79.8364 15.794C79.8364 16.094 79.6624 16.34 79.3144 16.532C78.9664 16.724 78.5644 16.868 78.1084 16.964C77.6644 17.048 77.3044 17.09 77.0284 17.09C76.4644 17.09 75.9184 16.988 75.3904 16.784C74.8624 16.58 74.4244 16.292 74.0764 15.92C73.7884 15.584 73.5604 15.182 73.3924 14.714C73.2244 14.234 73.1404 13.724 73.1404 13.184ZM77.0644 10.754C76.8004 10.754 76.5364 10.808 76.2724 10.916C76.0084 11.012 75.7924 11.15 75.6244 11.33C75.4084 11.558 75.2584 11.744 75.1744 11.888C75.1024 12.02 75.0544 12.206 75.0304 12.446C75.3304 12.542 75.9544 12.59 76.9024 12.59C77.4184 12.59 77.8144 12.512 78.0904 12.356C78.3784 12.2 78.5224 11.996 78.5224 11.744C78.5224 11.492 78.3664 11.264 78.0544 11.06C77.7424 10.856 77.4124 10.754 77.0644 10.754ZM81.8625 12.878C81.8625 12.146 82.0245 11.54 82.3485 11.06C82.6725 10.568 83.1225 10.106 83.6985 9.674C83.8665 9.554 84.1485 9.452 84.5445 9.368C84.9405 9.272 85.2885 9.224 85.5885 9.224C85.9485 9.224 86.3265 9.302 86.7225 9.458C87.1305 9.602 87.4605 9.77 87.7125 9.962C88.1565 10.286 88.4625 10.664 88.6305 11.096C88.7985 11.516 88.8825 12.02 88.8825 12.608C88.8825 12.86 88.7385 13.106 88.4505 13.346C88.1745 13.574 87.8745 13.688 87.5505 13.688L86.8665 13.67C86.5185 13.67 86.0205 13.682 85.3725 13.706L84.9945 13.724C84.7305 13.748 84.5325 13.76 84.4005 13.76C84.2085 13.76 83.9445 13.736 83.6085 13.688C83.6565 14.252 83.8665 14.696 84.2385 15.02C84.6105 15.332 85.0125 15.488 85.4445 15.488C86.2005 15.488 86.7285 15.338 87.0285 15.038C87.2805 14.858 87.4485 14.744 87.5325 14.696C87.6165 14.648 87.7485 14.624 87.9285 14.624C88.1205 14.624 88.2885 14.714 88.4325 14.894C88.5765 15.074 88.6485 15.254 88.6485 15.434C88.6485 15.638 88.5225 15.848 88.2705 16.064C88.0305 16.268 87.7005 16.484 87.2805 16.712C87.0525 16.808 86.7405 16.892 86.3445 16.964C85.9485 17.036 85.6185 17.072 85.3545 17.072C84.9345 17.072 84.4665 16.952 83.9505 16.712C83.4345 16.46 83.0505 16.184 82.7985 15.884C82.5465 15.584 82.3245 15.158 82.1325 14.606C81.9525 14.054 81.8625 13.478 81.8625 12.878ZM85.4445 12.392C86.2965 12.392 86.9205 12.362 87.3165 12.302C87.2925 11.954 87.1845 11.672 86.9925 11.456C86.8005 11.228 86.5365 11.036 86.2005 10.88C86.0925 10.832 85.9965 10.796 85.9125 10.772C85.8285 10.748 85.7325 10.736 85.6245 10.736C85.0725 10.736 84.6045 10.886 84.2205 11.186C83.8485 11.486 83.6265 11.87 83.5545 12.338C84.1545 12.374 84.7845 12.392 85.4445 12.392ZM90.7655 10.772C90.5975 10.748 90.4595 10.676 90.3515 10.556C90.2555 10.436 90.2075 10.292 90.2075 10.124C90.2075 10.04 90.2255 9.95 90.2615 9.854C90.3095 9.758 90.3755 9.674 90.4595 9.602C90.6155 9.446 91.0355 9.368 91.7195 9.368C91.8155 8.9 91.8635 8.426 91.8635 7.946C91.8635 7.766 91.8575 7.61 91.8455 7.478C91.8335 7.346 91.8275 7.244 91.8275 7.172C91.8275 6.908 91.9235 6.71 92.1155 6.578C92.3195 6.446 92.5475 6.38 92.7995 6.38C93.1115 6.38 93.3215 6.458 93.4295 6.614C93.5495 6.77 93.6095 7.058 93.6095 7.478C93.6095 8.102 93.5555 8.714 93.4475 9.314C93.6395 9.314 93.9035 9.302 94.2395 9.278C94.6955 9.254 95.0255 9.242 95.2295 9.242C95.4335 9.242 95.6075 9.296 95.7515 9.404C95.9075 9.5 95.9855 9.638 95.9855 9.818C95.9855 10.286 95.7755 10.562 95.3555 10.646C94.9115 10.754 94.2215 10.82 93.2855 10.844C93.2495 11.312 93.2315 11.822 93.2315 12.374C93.2315 13.238 93.2855 13.946 93.3935 14.498C93.4655 14.882 93.5855 15.164 93.7535 15.344C93.9335 15.512 94.1975 15.596 94.5455 15.596C94.7495 15.596 94.9595 15.542 95.1755 15.434C95.3195 15.35 95.4515 15.308 95.5715 15.308C95.7395 15.308 95.8595 15.362 95.9315 15.47C96.0155 15.578 96.0575 15.722 96.0575 15.902C96.0575 16.238 95.8775 16.52 95.5175 16.748C95.1575 16.964 94.6955 17.072 94.1315 17.072C93.7835 17.072 93.4295 16.988 93.0695 16.82C92.7215 16.652 92.4275 16.442 92.1875 16.19C92.1515 16.154 92.0855 16.016 91.9895 15.776C91.8935 15.536 91.8095 15.278 91.7375 15.002C91.6175 14.438 91.5575 13.646 91.5575 12.626C91.5575 12.182 91.5815 11.588 91.6295 10.844L90.7655 10.772ZM98.5951 5.444C99.0151 5.48 99.3751 5.594 99.6751 5.786C99.9871 5.966 100.143 6.242 100.143 6.614C100.143 6.89 100.017 7.112 99.7651 7.28C99.5131 7.436 99.2011 7.514 98.8291 7.514C98.4811 7.514 98.2411 7.424 98.1091 7.244C97.9771 7.064 97.9111 6.878 97.9111 6.686C97.9111 6.338 97.9531 6.044 98.0371 5.804C98.1211 5.552 98.3071 5.432 98.5951 5.444ZM98.2351 12.878V12.356C98.2351 11.756 98.2051 11.21 98.1451 10.718C98.0971 10.214 98.0671 9.902 98.0551 9.782C98.0671 9.65 98.1571 9.524 98.3251 9.404C98.4931 9.284 98.6431 9.224 98.7751 9.224C99.0031 9.224 99.2311 9.272 99.4591 9.368C99.6991 9.452 99.8491 9.56 99.9091 9.692C99.9691 10.136 99.9991 10.478 99.9991 10.718C99.9991 11.246 100.023 12.11 100.071 13.31L100.089 14.012L100.125 14.696C100.137 14.888 100.149 15.116 100.161 15.38C100.173 15.644 100.179 15.944 100.179 16.28C100.179 16.508 100.065 16.7 99.8371 16.856C99.6211 17.012 99.3931 17.09 99.1531 17.09C98.8051 17.09 98.5591 17.012 98.4151 16.856C98.2831 16.7 98.2171 16.454 98.2171 16.118L98.2351 12.878ZM102.319 10.664C102.223 10.592 102.145 10.52 102.085 10.448C102.025 10.364 101.995 10.22 101.995 10.016C101.995 9.788 102.073 9.614 102.229 9.494C102.397 9.362 102.589 9.296 102.805 9.296C103.225 9.296 103.585 9.404 103.885 9.62C104.197 9.836 104.425 10.136 104.569 10.52C104.833 10.028 105.169 9.692 105.577 9.512C105.985 9.32 106.549 9.224 107.269 9.224C107.557 9.224 107.851 9.314 108.151 9.494C108.463 9.662 108.745 9.872 108.997 10.124C109.201 10.388 109.375 10.718 109.519 11.114C109.663 11.498 109.735 11.846 109.735 12.158C109.735 12.338 109.723 12.632 109.699 13.04C109.675 13.472 109.663 13.814 109.663 14.066C109.663 14.906 109.825 15.422 110.149 15.614C110.197 15.638 110.287 15.668 110.419 15.704C110.551 15.74 110.647 15.776 110.707 15.812C110.779 15.848 110.815 15.902 110.815 15.974C110.827 16.262 110.719 16.502 110.491 16.694C110.275 16.874 110.011 16.964 109.699 16.964C109.231 16.964 108.865 16.838 108.601 16.586C108.337 16.334 108.151 15.95 108.043 15.434C107.983 15.242 107.953 14.96 107.953 14.588C107.953 14.384 107.965 14.054 107.989 13.598C108.025 13.238 108.043 12.854 108.043 12.446C108.043 12.026 107.923 11.66 107.683 11.348C107.443 11.024 107.113 10.862 106.693 10.862C106.441 10.862 106.177 10.94 105.901 11.096C105.625 11.24 105.433 11.42 105.325 11.636C105.145 12.008 105.025 12.386 104.965 12.77C104.821 13.514 104.749 14.228 104.749 14.912C104.749 15.08 104.761 15.404 104.785 15.884C104.785 15.92 104.785 16.01 104.785 16.154C104.785 16.286 104.767 16.412 104.731 16.532C104.707 16.652 104.659 16.76 104.587 16.856C104.539 16.904 104.449 16.952 104.317 17C104.185 17.048 104.071 17.072 103.975 17.072C103.807 17.072 103.597 17 103.345 16.856C103.093 16.712 102.943 16.55 102.895 16.37L102.877 16.118C102.877 16.022 102.889 15.878 102.913 15.686C103.057 14.846 103.129 14.114 103.129 13.49C103.129 13.214 103.123 13.004 103.111 12.86L103.093 12.032C103.093 11.78 103.021 11.54 102.877 11.312C102.733 11.072 102.547 10.856 102.319 10.664ZM113.591 16.73C113.507 16.55 113.465 16.34 113.465 16.1C113.465 15.872 113.633 15.53 113.969 15.074C113.393 14.882 112.937 14.54 112.601 14.048C112.277 13.556 112.115 12.98 112.115 12.32C112.115 11.888 112.217 11.498 112.421 11.15C112.625 10.79 112.907 10.448 113.267 10.124C113.879 9.572 114.725 9.296 115.805 9.296C116.237 9.296 116.771 9.392 117.407 9.584C118.163 8.936 118.829 8.612 119.405 8.612C119.765 8.612 120.023 8.684 120.179 8.828C120.347 8.96 120.431 9.194 120.431 9.53C120.431 9.662 120.377 9.788 120.269 9.908C120.173 10.016 120.047 10.07 119.891 10.07L119.243 10.052C118.835 10.052 118.541 10.13 118.361 10.286C118.589 10.562 118.775 10.916 118.919 11.348C119.075 11.78 119.153 12.272 119.153 12.824C119.153 13.556 118.649 14.24 117.641 14.876C117.017 15.212 116.291 15.386 115.463 15.398C115.367 15.494 115.283 15.584 115.211 15.668C115.151 15.74 115.121 15.8 115.121 15.848C115.121 15.98 115.235 16.082 115.463 16.154C115.691 16.226 116.039 16.28 116.507 16.316C116.855 16.34 117.245 16.418 117.677 16.55C118.121 16.67 118.469 16.808 118.721 16.964C119.033 17.192 119.249 17.438 119.369 17.702C119.501 17.966 119.567 18.296 119.567 18.692C119.567 19.208 119.327 19.64 118.847 19.988C118.379 20.348 117.827 20.612 117.191 20.78C116.555 20.948 115.997 21.032 115.517 21.032C114.941 21.032 114.449 20.96 114.041 20.816C113.645 20.684 113.267 20.498 112.907 20.258C112.655 20.078 112.457 19.85 112.313 19.574C112.169 19.298 112.097 19.01 112.097 18.71C112.097 18.47 112.277 18.146 112.637 17.738C113.009 17.33 113.369 17.048 113.717 16.892C113.681 16.856 113.639 16.802 113.591 16.73ZM115.409 13.922C115.973 13.922 116.447 13.772 116.831 13.472C117.215 13.16 117.407 12.734 117.407 12.194C117.407 11.762 117.281 11.42 117.029 11.168C116.777 10.904 116.423 10.772 115.967 10.772C115.019 10.772 114.401 10.982 114.113 11.402C114.041 11.498 113.969 11.684 113.897 11.96C113.825 12.224 113.789 12.428 113.789 12.572C113.789 12.776 113.861 12.986 114.005 13.202C114.161 13.406 114.365 13.58 114.617 13.724C114.869 13.856 115.133 13.922 115.409 13.922ZM113.789 18.836C113.789 19.04 113.975 19.214 114.347 19.358C114.731 19.514 115.139 19.592 115.571 19.592C116.051 19.592 116.543 19.502 117.047 19.322C117.563 19.154 117.821 18.926 117.821 18.638C117.821 18.218 117.449 17.948 116.705 17.828C115.889 17.684 115.247 17.552 114.779 17.432C114.731 17.6 114.569 17.816 114.293 18.08C114.113 18.26 113.981 18.398 113.897 18.494C113.825 18.602 113.789 18.716 113.789 18.836ZM65.128 33.23C65.548 33.938 65.968 34.568 66.388 35.12C66.82 35.66 67.384 36.326 68.08 37.118C68.164 37.202 68.206 37.298 68.206 37.406C68.206 37.574 68.11 37.718 67.918 37.838C67.738 37.958 67.516 38.018 67.252 38.018C66.88 38.018 66.478 37.862 66.046 37.55C65.662 37.274 65.32 36.908 65.02 36.452C64.72 35.996 64.372 35.402 63.976 34.67C63.664 34.106 63.478 33.776 63.418 33.68C62.95 33.872 62.218 33.992 61.222 34.04C61.222 34.448 61.258 35 61.33 35.696C61.402 36.416 61.438 36.938 61.438 37.262C61.438 37.478 61.33 37.658 61.114 37.802C60.91 37.946 60.676 38.018 60.412 38.018C60.1 38.018 59.86 37.892 59.692 37.64C59.524 37.304 59.416 36.902 59.368 36.434C59.32 35.966 59.296 35.408 59.296 34.76C59.296 34.076 59.338 33.302 59.422 32.438C59.494 31.478 59.53 30.77 59.53 30.314C59.53 29.942 59.494 29.444 59.422 28.82C59.41 28.712 59.392 28.526 59.368 28.262C59.344 27.998 59.332 27.758 59.332 27.542C59.332 27.374 59.392 27.23 59.512 27.11C59.644 26.978 59.782 26.888 59.926 26.84C60.898 26.684 61.846 26.606 62.77 26.606C64.342 26.606 65.644 26.9 66.676 27.488C67.708 28.076 68.224 28.97 68.224 30.17C68.224 30.542 68.14 30.902 67.972 31.25C67.816 31.586 67.6 31.868 67.324 32.096C66.592 32.66 65.86 33.038 65.128 33.23ZM66.334 30.116C66.334 29.54 66.028 29.072 65.416 28.712C64.804 28.34 63.934 28.154 62.806 28.154C62.302 28.154 61.804 28.214 61.312 28.334L61.33 29.252C61.33 29.78 61.312 30.296 61.276 30.8C61.24 31.304 61.222 31.844 61.222 32.42C61.426 32.372 61.642 32.342 61.87 32.33C62.098 32.306 62.248 32.288 62.32 32.276C62.848 32.228 63.256 32.168 63.544 32.096C64.084 31.928 64.528 31.778 64.876 31.646C65.236 31.502 65.566 31.304 65.866 31.052C66.178 30.788 66.334 30.476 66.334 30.116ZM75.2893 26.552C76.0933 26.552 76.8253 26.654 77.4853 26.858C78.1453 27.05 78.6853 27.338 79.1053 27.722C79.8613 28.406 80.3893 29.156 80.6893 29.972C81.0013 30.776 81.1573 31.808 81.1573 33.068C81.1573 33.332 81.1213 33.572 81.0493 33.788C80.9893 34.004 80.8873 34.28 80.7433 34.616C80.5633 34.988 80.4553 35.282 80.4193 35.498C80.1793 35.918 79.7833 36.32 79.2313 36.704C78.6913 37.088 78.1033 37.4 77.4673 37.64C76.8313 37.88 76.2733 38 75.7933 38C73.4773 38 71.8273 37.208 70.8433 35.624C70.5673 35.18 70.3513 34.718 70.1953 34.238C70.0513 33.758 69.9793 33.29 69.9793 32.834C69.9793 31.61 70.1953 30.548 70.6273 29.648C71.0713 28.736 71.6833 28.028 72.4633 27.524C72.9313 27.248 73.4173 27.02 73.9213 26.84C74.4373 26.648 74.8933 26.552 75.2893 26.552ZM71.8513 32.888C71.8513 33.536 71.9953 34.07 72.2833 34.49C72.5833 34.91 73.0393 35.366 73.6513 35.858C74.1553 36.05 74.4973 36.176 74.6773 36.236C74.8573 36.284 75.0613 36.308 75.2893 36.308C76.5013 36.308 77.4673 35.978 78.1873 35.318C78.9073 34.658 79.2673 33.752 79.2673 32.6C79.2673 31.688 79.1653 30.968 78.9613 30.44C78.7573 29.912 78.3913 29.438 77.8633 29.018C77.5873 28.79 77.2333 28.622 76.8013 28.514C76.3813 28.406 75.9253 28.352 75.4333 28.352C74.6893 28.352 74.0473 28.574 73.5073 29.018C72.9673 29.45 72.5533 30.014 72.2653 30.71C71.9893 31.406 71.8513 32.132 71.8513 32.888ZM89.0343 38.018C88.2423 38.018 87.5163 37.922 86.8563 37.73C86.1963 37.526 85.6563 37.232 85.2363 36.848C84.4683 36.164 83.9283 35.42 83.6163 34.616C83.3163 33.8 83.1663 32.762 83.1663 31.502C83.1663 31.238 83.2023 30.992 83.2743 30.764C83.3583 30.524 83.4663 30.26 83.5983 29.972C83.6343 29.888 83.6883 29.756 83.7603 29.576C83.8443 29.384 83.8983 29.21 83.9223 29.054C84.1503 28.634 84.5343 28.232 85.0743 27.848C85.6263 27.464 86.2203 27.158 86.8563 26.93C87.4923 26.69 88.0503 26.57 88.5303 26.57C90.8463 26.57 92.5023 27.362 93.4983 28.946C94.0623 29.87 94.3443 30.8 94.3443 31.736C94.3443 32.948 94.1223 34.01 93.6783 34.922C93.2463 35.834 92.6463 36.542 91.8783 37.046C91.3983 37.334 90.9063 37.568 90.4023 37.748C89.8983 37.928 89.4423 38.018 89.0343 38.018ZM85.0383 32.834C85.0263 33.494 85.1643 34.04 85.4523 34.472C85.7523 34.892 86.2203 35.354 86.8563 35.858C87.3363 36.038 87.6723 36.158 87.8643 36.218C88.0563 36.278 88.2663 36.308 88.4943 36.308C89.2743 36.308 89.9643 36.146 90.5643 35.822C91.1643 35.498 91.6263 35.054 91.9503 34.49C92.2863 33.926 92.4543 33.296 92.4543 32.6C92.4543 31.688 92.3523 30.968 92.1483 30.44C91.9443 29.912 91.5783 29.438 91.0503 29.018C90.7743 28.79 90.4203 28.622 89.9883 28.514C89.5683 28.406 89.1183 28.352 88.6383 28.352C87.4863 28.352 86.5923 28.76 85.9563 29.576C85.3323 30.38 85.0263 31.466 85.0383 32.834ZM108.486 27.524C108.486 28.244 108.462 29.252 108.414 30.548C108.402 30.86 108.39 31.238 108.378 31.682C108.366 32.114 108.36 32.618 108.36 33.194C108.36 35.078 108.462 36.428 108.666 37.244C108.654 37.544 108.54 37.76 108.324 37.892C108.108 38.012 107.886 38.072 107.658 38.072C107.19 38.072 106.878 37.904 106.722 37.568C106.578 37.22 106.506 36.734 106.506 36.11C106.506 33.794 106.542 31.652 106.614 29.684C106.386 30.14 106.17 30.644 105.966 31.196C105.774 31.736 105.516 32.492 105.192 33.464C104.856 34.52 104.568 35.354 104.328 35.966C104.1 36.578 103.86 37.052 103.608 37.388C103.536 37.424 103.392 37.496 103.176 37.604C102.972 37.7 102.792 37.748 102.636 37.748C102.384 37.748 102.204 37.706 102.096 37.622C101.988 37.538 101.892 37.418 101.808 37.262C101.724 37.106 101.652 36.98 101.592 36.884C101.4 36.596 101.154 36.122 100.854 35.462C100.554 34.802 100.278 34.112 100.026 33.392C99.9305 33.14 99.8405 32.9 99.7565 32.672C99.6845 32.432 99.6125 32.21 99.5405 32.006C99.3965 31.574 99.2525 31.172 99.1085 30.8C98.9765 30.416 98.8625 30.146 98.7665 29.99C98.7665 30.626 98.7485 31.262 98.7125 31.898C98.6885 32.666 98.6765 33.218 98.6765 33.554C98.6765 33.794 98.6885 34.118 98.7125 34.526C98.7845 35.774 98.8205 36.596 98.8205 36.992C98.8205 37.28 98.7485 37.526 98.6045 37.73C98.4605 37.934 98.2385 38.036 97.9385 38.036C97.6145 38.036 97.3505 37.976 97.1465 37.856C96.9545 37.724 96.8525 37.532 96.8405 37.28C96.8525 37.076 96.8585 36.746 96.8585 36.29C96.8585 35.366 96.8225 33.896 96.7505 31.88L96.7325 31.232C96.7325 30.776 96.7565 30.128 96.8045 29.288C96.8165 29.084 96.8285 28.844 96.8405 28.568C96.8525 28.292 96.8585 27.992 96.8585 27.668C96.8585 27.296 96.9845 27.026 97.2365 26.858C97.4885 26.678 97.8125 26.588 98.2085 26.588C98.4485 26.588 98.6885 26.648 98.9285 26.768C99.1805 26.888 99.3665 27.062 99.4865 27.29C99.7265 27.782 99.9665 28.364 100.206 29.036C100.446 29.696 100.77 30.638 101.178 31.862C101.562 33.026 101.868 33.914 102.096 34.526C102.324 35.126 102.516 35.534 102.672 35.75L103.086 34.526C104.442 30.386 105.354 27.938 105.822 27.182C105.93 27.038 106.116 26.912 106.38 26.804C106.656 26.684 106.914 26.624 107.154 26.624C107.334 26.624 107.598 26.738 107.946 26.966C108.306 27.182 108.486 27.368 108.486 27.524Z" fill="#6A5AED"/>
</svg>
