<svg width="16" height="16" viewBox="0 0 16 16" fill="none" xmlns="http://www.w3.org/2000/svg">
<path fill-rule="evenodd" clip-rule="evenodd" d="M2.9953 2.61382C2.4262 2.56786 1.96793 2.9753 1.96793 3.52414V10.8958C1.96793 11.3301 2.34639 11.7474 2.7946 11.8013L2.79864 11.8018L2.98143 11.8261L2.98216 11.8261C4.35705 12.0029 6.43574 12.6514 7.70243 13.2915C7.68937 13.2581 7.68221 13.2219 7.68221 13.1842V4.17042C7.61835 4.15074 7.55611 4.12423 7.49806 4.08988L7.33641 3.99668C6.24875 3.34479 4.27846 2.71366 2.99626 2.6139L2.9953 2.61382ZM12.9927 11.826C11.6266 12.0007 9.57183 12.6426 8.30046 13.282C8.31127 13.2513 8.31714 13.2184 8.31714 13.1842V4.17045C8.38187 4.15052 8.44493 4.12357 8.50365 4.08854L8.61389 4.01998C8.88851 3.8568 9.22037 3.69143 9.58698 3.53353V5.56234C9.58698 5.59379 9.59201 5.62453 9.60152 5.65366C9.62601 5.72868 9.68019 5.79301 9.75448 5.83127C9.85761 5.8844 9.98279 5.87868 10.0802 5.81641L10.0802 5.81639L11.1743 5.11714L12.2683 5.81641C12.3658 5.87868 12.4909 5.8844 12.5941 5.83127C12.6585 5.79807 12.7079 5.74525 12.7358 5.68285C12.7525 5.64541 12.7616 5.60452 12.7616 5.56234C12.7616 5.56234 12.7616 5.56233 12.7616 5.56232L12.7616 2.63916C12.8244 2.63188 12.8862 2.62595 12.9464 2.621H12.9711C12.98 2.621 12.9889 2.62064 12.9977 2.61993C13.5699 2.57372 14.0314 2.97825 14.0314 3.53025V10.8958C14.0314 11.33 13.6527 11.7472 13.2047 11.8013L12.9964 11.8256L12.9927 11.826ZM12.3906 2.07614C12.5738 2.04373 12.7484 2.0245 12.9067 2.01182C12.9154 2.01112 12.9242 2.01077 12.933 2.01077H12.9585C13.8912 1.94276 14.6663 2.6222 14.6663 3.53025V10.8958C14.6663 11.6331 14.0543 12.3142 13.2835 12.4068L13.2824 12.4069L13.0746 12.4312C11.7306 12.6034 9.63813 13.2676 8.45367 13.8956C8.31134 13.9736 8.1446 14.0034 7.9957 14.0034C7.84761 14.0034 7.68342 13.974 7.54146 13.9001L7.52152 13.8905L7.51083 13.8852C6.32586 13.2623 4.23628 12.6029 2.89732 12.4309L2.89596 12.4307L2.71377 12.4066C1.9439 12.313 1.33301 11.6324 1.33301 10.8958V3.52414C1.33301 2.62077 2.10619 1.92988 3.04798 2.00569C4.43152 2.11345 6.4971 2.7752 7.67004 3.47743L7.83056 3.57002C7.86054 3.5879 7.92095 3.60652 7.99967 3.60652C8.07688 3.60652 8.13647 3.58861 8.16702 3.57105L8.27703 3.50271C8.69589 3.25349 9.21999 3.0085 9.78274 2.79074C9.78426 2.79014 9.78578 2.78954 9.78731 2.78896C10.6359 2.46521 11.5841 2.20244 12.3906 2.07614ZM12.1267 2.74364C11.5212 2.86365 10.851 3.05333 10.2219 3.2816V4.99299L10.9985 4.49665L10.9985 4.49663C11.105 4.42857 11.2436 4.42857 11.3501 4.49663L12.1267 4.99299V2.74364Z" fill="#6A5AED"/>
<path d="M2.9953 2.61382L2.98725 2.7135L2.9874 2.71351L2.9953 2.61382ZM2.7946 11.8013L2.80653 11.702H2.80653L2.7946 11.8013ZM2.79864 11.8018L2.81181 11.7026L2.81057 11.7025L2.79864 11.8018ZM2.98143 11.8261L2.96826 11.9252L2.96871 11.9252L2.98143 11.8261ZM2.98216 11.8261L2.99491 11.727L2.99488 11.727L2.98216 11.8261ZM7.70243 13.2915L7.65733 13.3808C7.69433 13.3995 7.73903 13.3934 7.7697 13.3655C7.80037 13.3376 7.81066 13.2937 7.79556 13.2551L7.70243 13.2915ZM7.68221 4.17042H7.78221C7.78221 4.12653 7.7536 4.08778 7.71167 4.07485L7.68221 4.17042ZM7.49806 4.08988L7.54899 4.00382L7.54801 4.00325L7.49806 4.08988ZM7.33641 3.99668L7.285 4.08247L7.28646 4.08332L7.33641 3.99668ZM2.99626 2.6139L2.98837 2.71359L2.98851 2.7136L2.99626 2.6139ZM8.30046 13.282L8.20613 13.2488C8.19259 13.2873 8.20377 13.3301 8.2344 13.3571C8.26502 13.384 8.30894 13.3897 8.34539 13.3713L8.30046 13.282ZM12.9927 11.826L12.9801 11.7268L12.98 11.7268L12.9927 11.826ZM8.31714 4.17045L8.2877 4.07489C8.24575 4.0878 8.21714 4.12656 8.21714 4.17045H8.31714ZM8.50365 4.08854L8.55489 4.17444L8.55646 4.17346L8.50365 4.08854ZM8.61389 4.01998L8.5628 3.934L8.56108 3.93506L8.61389 4.01998ZM9.58698 3.53353H9.68698C9.68698 3.49988 9.67005 3.46849 9.64195 3.44999C9.61384 3.43149 9.57832 3.42837 9.54741 3.44168L9.58698 3.53353ZM9.60152 5.65366L9.69658 5.62262V5.62262L9.60152 5.65366ZM9.75448 5.83127L9.70869 5.92017L9.70869 5.92017L9.75448 5.83127ZM10.0802 5.81641L10.1341 5.90067C10.1612 5.88331 10.1784 5.85392 10.1801 5.82174L10.0802 5.81641ZM10.0802 5.81639L10.0264 5.73213C9.99922 5.74949 9.98209 5.77888 9.98037 5.81107L10.0802 5.81639ZM11.1743 5.11714L11.2281 5.03288C11.1953 5.0119 11.1533 5.0119 11.1204 5.03288L11.1743 5.11714ZM12.2683 5.81641L12.2145 5.90067L12.2683 5.81641ZM12.5941 5.83127L12.5483 5.74237L12.5483 5.74237L12.5941 5.83127ZM12.7358 5.68285L12.8271 5.72369V5.72369L12.7358 5.68285ZM12.7616 5.56232H12.8616V5.56232L12.7616 5.56232ZM12.7616 2.63916L12.7501 2.53983C12.6996 2.54567 12.6616 2.58839 12.6616 2.63916L12.7616 2.63916ZM12.9464 2.621V2.52067L12.9382 2.52134L12.9464 2.621ZM12.9977 2.61993L13.0057 2.71961L13.0057 2.71961L12.9977 2.61993ZM13.2047 11.8013L13.2163 11.9006L13.2167 11.9006L13.2047 11.8013ZM12.9964 11.8256L12.9848 11.7262L12.9837 11.7264L12.9964 11.8256ZM12.3906 2.07614L12.4061 2.17496L12.4081 2.17461L12.3906 2.07614ZM12.9067 2.01182L12.8987 1.91214L12.8987 1.91214L12.9067 2.01182ZM12.9585 2.01077V2.11103L12.9657 2.1105L12.9585 2.01077ZM13.2835 12.4068L13.2952 12.5061L13.2954 12.5061L13.2835 12.4068ZM13.2824 12.4069L13.2939 12.5063L13.2941 12.5063L13.2824 12.4069ZM13.0746 12.4312L13.0631 12.3318L13.0619 12.332L13.0746 12.4312ZM8.45367 13.8956L8.40683 13.8072L8.4056 13.8079L8.45367 13.8956ZM7.54146 13.9001L7.58767 13.8113L7.58467 13.8099L7.54146 13.9001ZM7.52152 13.8905L7.47664 13.9799L7.47832 13.9807L7.52152 13.8905ZM7.51083 13.8852L7.46429 13.9737L7.46595 13.9745L7.51083 13.8852ZM2.89732 12.4309L2.88433 12.5301L2.88458 12.5301L2.89732 12.4309ZM2.89596 12.4307L2.88281 12.5299L2.88297 12.5299L2.89596 12.4307ZM2.71377 12.4066L2.72692 12.3074L2.72583 12.3073L2.71377 12.4066ZM3.04798 2.00569L3.03996 2.10537L3.04021 2.10539L3.04798 2.00569ZM7.67004 3.47743L7.61866 3.56324L7.62007 3.56405L7.67004 3.47743ZM7.83056 3.57002L7.8818 3.48413L7.88053 3.48339L7.83056 3.57002ZM8.16702 3.57105L8.21688 3.6578L8.21979 3.65599L8.16702 3.57105ZM8.27703 3.50271L8.22589 3.41675L8.22426 3.41776L8.27703 3.50271ZM9.78274 2.79074L9.81883 2.88401L9.81977 2.88363L9.78274 2.79074ZM9.78731 2.78896L9.82295 2.88239L9.82296 2.88239L9.78731 2.78896ZM12.1267 2.74364H12.2267C12.2267 2.71371 12.2133 2.68535 12.1901 2.66636C12.167 2.64736 12.1366 2.63972 12.1072 2.64554L12.1267 2.74364ZM10.2219 3.2816L10.1878 3.1876C10.1482 3.20195 10.1219 3.23952 10.1219 3.2816H10.2219ZM10.2219 4.99299H10.1219C10.1219 5.02953 10.1418 5.06315 10.1739 5.0807C10.2059 5.09825 10.245 5.09693 10.2758 5.07725L10.2219 4.99299ZM10.9985 4.49665L11.0523 4.58091C11.0795 4.56354 11.0967 4.53412 11.0983 4.50191L10.9985 4.49665ZM10.9985 4.49663L10.9446 4.41237C10.9175 4.42975 10.9003 4.45916 10.8986 4.49138L10.9985 4.49663ZM11.3501 4.49663L11.2962 4.58089V4.58089L11.3501 4.49663ZM12.1267 4.99299L12.0728 5.07725C12.1036 5.09693 12.1427 5.09825 12.1747 5.0807C12.2067 5.06315 12.2267 5.02953 12.2267 4.99299H12.1267ZM2.06793 3.52414C2.06793 3.0375 2.4725 2.67192 2.98725 2.7135L3.00335 2.51415C2.37989 2.46379 1.86793 2.91309 1.86793 3.52414H2.06793ZM2.06793 10.8958V3.52414H1.86793V10.8958H2.06793ZM2.80653 11.702C2.40621 11.6539 2.06793 11.2772 2.06793 10.8958H1.86793C1.86793 11.3831 2.28658 11.841 2.78267 11.9006L2.80653 11.702ZM2.81057 11.7025L2.80653 11.702L2.78267 11.9006L2.78671 11.9011L2.81057 11.7025ZM2.9946 11.7269L2.81181 11.7026L2.78547 11.9009L2.96826 11.9252L2.9946 11.7269ZM2.99488 11.727L2.99415 11.7269L2.96871 11.9252L2.96944 11.9253L2.99488 11.727ZM7.74753 13.2023C6.47113 12.5573 4.38154 11.9052 2.99491 11.727L2.96941 11.9253C4.33256 12.1006 6.40034 12.7456 7.65733 13.3808L7.74753 13.2023ZM7.58221 13.1842C7.58221 13.2347 7.59179 13.2832 7.6093 13.3279L7.79556 13.2551C7.78694 13.2331 7.78221 13.2092 7.78221 13.1842H7.58221ZM7.58221 4.17042V13.1842H7.78221V4.17042H7.58221ZM7.44713 4.17594C7.51271 4.21475 7.58229 4.24426 7.65276 4.26598L7.71167 4.07485C7.65441 4.05721 7.59951 4.03372 7.54899 4.00382L7.44713 4.17594ZM7.28646 4.08332L7.44811 4.17651L7.54801 4.00325L7.38636 3.91005L7.28646 4.08332ZM2.98851 2.7136C4.25525 2.81216 6.2106 3.43852 7.285 4.08246L7.38782 3.91091C6.2869 3.25107 4.30167 2.61516 3.00402 2.5142L2.98851 2.7136ZM2.9874 2.71351L2.98837 2.71359L3.00416 2.51421L3.00319 2.51413L2.9874 2.71351ZM8.34539 13.3713C9.60724 12.7368 11.6512 12.0984 13.0054 11.9252L12.98 11.7268C11.6021 11.903 9.53641 12.5485 8.25553 13.1927L8.34539 13.3713ZM8.21714 13.1842C8.21714 13.2069 8.21326 13.2286 8.20613 13.2488L8.39478 13.3152C8.40929 13.274 8.41714 13.2299 8.41714 13.1842H8.21714ZM8.21714 4.17045V13.1842H8.41714V4.17045H8.21714ZM8.45241 4.00266C8.40134 4.03313 8.34574 4.05701 8.2877 4.07489L8.34657 4.26602C8.418 4.24402 8.48852 4.21401 8.55488 4.17442L8.45241 4.00266ZM8.56108 3.93506L8.45084 4.00362L8.55646 4.17346L8.6667 4.1049L8.56108 3.93506ZM9.54741 3.44168C9.17792 3.60084 8.84202 3.7681 8.56281 3.93401L8.66498 4.10595C8.93501 3.94549 9.26283 3.78203 9.62654 3.62537L9.54741 3.44168ZM9.68698 5.56234V3.53353H9.48697V5.56234H9.68698ZM9.69658 5.62262C9.69029 5.60335 9.68698 5.58308 9.68698 5.56234H9.48697C9.48697 5.6045 9.49373 5.64571 9.50646 5.68469L9.69658 5.62262ZM9.80027 5.74237C9.74903 5.71598 9.71278 5.67226 9.69658 5.62262L9.50646 5.68469C9.53924 5.7851 9.61134 5.87003 9.70869 5.92017L9.80027 5.74237ZM10.0264 5.73215C9.95908 5.77516 9.87186 5.77925 9.80027 5.74237L9.70869 5.92017C9.84337 5.98954 10.0065 5.98221 10.1341 5.90067L10.0264 5.73215ZM9.98037 5.81107L9.98037 5.81108L10.1801 5.82174L10.1801 5.82172L9.98037 5.81107ZM11.1204 5.03288L10.0264 5.73213L10.1341 5.90065L11.2281 5.2014L11.1204 5.03288ZM12.3222 5.73215L11.2281 5.03288L11.1204 5.2014L12.2145 5.90067L12.3222 5.73215ZM12.5483 5.74237C12.4767 5.77925 12.3895 5.77516 12.3222 5.73215L12.2145 5.90067C12.342 5.98221 12.5052 5.98954 12.6399 5.92017L12.5483 5.74237ZM12.6445 5.642C12.6259 5.68351 12.5927 5.71947 12.5483 5.74237L12.6399 5.92017C12.7243 5.87667 12.7898 5.80699 12.8271 5.72369L12.6445 5.642ZM12.6616 5.56234C12.6616 5.59012 12.6556 5.61712 12.6445 5.64201L12.8271 5.72369C12.8494 5.67369 12.8616 5.61891 12.8616 5.56234H12.6616ZM12.6616 5.56232C12.6616 5.5571 12.662 5.5529 12.6623 5.55041C12.6626 5.54814 12.6629 5.5462 12.6628 5.54653V5.54653C12.6628 5.54653 12.6628 5.54653 12.6628 5.54653C12.6628 5.54654 12.6628 5.54654 12.6628 5.54654C12.6628 5.54654 12.6628 5.54654 12.6628 5.54655C12.6628 5.54656 12.6628 5.54657 12.6628 5.54659C12.6628 5.54663 12.6628 5.5467 12.6628 5.54678C12.6628 5.54693 12.6627 5.54718 12.6627 5.5475C12.6626 5.54812 12.6624 5.54915 12.6623 5.55042C12.662 5.55291 12.6616 5.55712 12.6616 5.56234H12.8616C12.8616 5.56757 12.8612 5.57176 12.8609 5.57425C12.8606 5.57652 12.8603 5.57846 12.8603 5.57813C12.8603 5.57813 12.8603 5.57813 12.8603 5.57813C12.8603 5.57813 12.8603 5.57813 12.8603 5.57813C12.8603 5.57813 12.8603 5.57813 12.8603 5.57813C12.8603 5.57813 12.8603 5.57812 12.8603 5.57812C12.8603 5.57811 12.8603 5.57809 12.8603 5.57807C12.8603 5.57803 12.8603 5.57797 12.8604 5.57789C12.8604 5.57774 12.8604 5.57748 12.8605 5.57716C12.8606 5.57655 12.8607 5.57552 12.8609 5.57424C12.8612 5.57175 12.8616 5.56755 12.8616 5.56232H12.6616ZM12.6616 2.63916L12.6616 5.56232L12.8616 5.56232L12.8616 2.63916L12.6616 2.63916ZM12.9382 2.52134C12.877 2.52636 12.8142 2.53239 12.7501 2.53983L12.7731 2.7385C12.8347 2.73136 12.8953 2.72554 12.9546 2.72067L12.9382 2.52134ZM12.9711 2.521H12.9464V2.721H12.9711V2.521ZM12.9896 2.52025C12.9835 2.52075 12.9773 2.521 12.9711 2.521V2.721C12.9827 2.721 12.9942 2.72054 13.0057 2.71961L12.9896 2.52025ZM14.1314 3.53025C14.1314 2.91521 13.6153 2.46972 12.9896 2.52025L13.0057 2.71961C13.5244 2.67771 13.9314 3.04129 13.9314 3.53025H14.1314ZM14.1314 10.8958V3.53025H13.9314V10.8958H14.1314ZM13.2167 11.9006C13.7125 11.8407 14.1314 11.383 14.1314 10.8958H13.9314C13.9314 11.2769 13.593 11.6537 13.1928 11.702L13.2167 11.9006ZM13.0079 11.9249L13.2163 11.9006L13.1932 11.702L12.9848 11.7262L13.0079 11.9249ZM13.0054 11.9252L13.009 11.9248L12.9837 11.7264L12.9801 11.7268L13.0054 11.9252ZM12.4081 2.17461C12.5872 2.14291 12.7585 2.12401 12.9146 2.1115L12.8987 1.91214C12.7383 1.92499 12.5604 1.94455 12.3732 1.97767L12.4081 2.17461ZM12.9146 2.1115C12.9208 2.11101 12.9269 2.11077 12.933 2.11077V1.91077C12.9216 1.91077 12.9101 1.91122 12.8987 1.91214L12.9146 2.1115ZM12.933 2.11077H12.9585V1.91077H12.933V2.11077ZM12.9657 2.1105C13.8453 2.04637 14.5663 2.68498 14.5663 3.53025H14.7663C14.7663 2.55942 13.9371 1.83915 12.9512 1.91103L12.9657 2.1105ZM14.5663 3.53025V10.8958H14.7663V3.53025H14.5663ZM14.5663 10.8958C14.5663 11.5802 13.9944 12.2207 13.2716 12.3075L13.2954 12.5061C14.1143 12.4077 14.7663 11.686 14.7663 10.8958H14.5663ZM13.2718 12.3075L13.2707 12.3076L13.2941 12.5063L13.2952 12.5061L13.2718 12.3075ZM13.2708 12.3076L13.0631 12.3318L13.0862 12.5305L13.2939 12.5063L13.2708 12.3076ZM13.0619 12.332C11.706 12.5057 9.60197 13.1736 8.40683 13.8072L8.50051 13.984C9.67429 13.3617 11.7552 12.701 13.0874 12.5304L13.0619 12.332ZM8.4056 13.8079C8.28183 13.8758 8.13278 13.9034 7.9957 13.9034V14.1034C8.15641 14.1034 8.34085 14.0715 8.50175 13.9833L8.4056 13.8079ZM7.9957 13.9034C7.85953 13.9034 7.71207 13.8762 7.58765 13.8114L7.49528 13.9888C7.65478 14.0718 7.83568 14.1034 7.9957 14.1034V13.9034ZM7.58467 13.8099L7.56473 13.8003L7.47832 13.9807L7.49826 13.9903L7.58467 13.8099ZM7.56639 13.8012L7.5557 13.7958L7.46595 13.9745L7.47665 13.9799L7.56639 13.8012ZM7.55735 13.7966C6.36181 13.1682 4.26077 12.5052 2.91006 12.3317L2.88458 12.5301C4.21178 12.7006 6.28992 13.3564 7.4643 13.9737L7.55735 13.7966ZM2.91031 12.3318L2.90895 12.3316L2.88297 12.5299L2.88433 12.5301L2.91031 12.3318ZM2.90912 12.3316L2.72692 12.3074L2.70061 12.5057L2.88281 12.5299L2.90912 12.3316ZM2.72583 12.3073C2.00388 12.2195 1.43301 11.5796 1.43301 10.8958H1.23301C1.23301 11.6853 1.88392 12.4064 2.7017 12.5058L2.72583 12.3073ZM1.43301 10.8958V3.52414H1.23301V10.8958H1.43301ZM1.43301 3.52414C1.43301 2.68289 2.15259 2.03394 3.03996 2.10537L3.056 1.90601C2.05979 1.82582 1.23301 2.55865 1.23301 3.52414H1.43301ZM3.04021 2.10539C4.40831 2.21195 6.45897 2.86892 7.61867 3.56322L7.7214 3.39163C6.53523 2.68148 4.45473 2.01496 3.05574 1.90599L3.04021 2.10539ZM7.62007 3.56405L7.7806 3.65664L7.88053 3.48339L7.72 3.3908L7.62007 3.56405ZM7.77933 3.6559C7.82851 3.68523 7.90778 3.70652 7.99967 3.70652V3.50652C7.93412 3.50652 7.89257 3.49056 7.8818 3.48414L7.77933 3.6559ZM7.99967 3.70652C8.09002 3.70652 8.16778 3.68596 8.21685 3.65775L8.11718 3.48435C8.10517 3.49126 8.06374 3.50652 7.99967 3.50652V3.70652ZM8.21979 3.65599L8.3298 3.58765L8.22426 3.41776L8.11425 3.48611L8.21979 3.65599ZM8.32816 3.58865C8.7409 3.34307 9.25962 3.10038 9.81882 2.884L9.74665 2.69748C9.18035 2.91661 8.65089 3.16391 8.2259 3.41677L8.32816 3.58865ZM9.81977 2.88363C9.82079 2.88322 9.82185 2.88281 9.82295 2.88239L9.75167 2.69553C9.74971 2.69627 9.74772 2.69705 9.7457 2.69785L9.81977 2.88363ZM9.82296 2.88239C10.6661 2.56072 11.6075 2.29999 12.4061 2.17494L12.3752 1.97735C11.5606 2.10488 10.6057 2.3697 9.75167 2.69553L9.82296 2.88239ZM12.1072 2.64554C11.4963 2.76664 10.8212 2.95775 10.1878 3.1876L10.256 3.3756C10.8807 3.1489 11.546 2.96067 12.1461 2.84173L12.1072 2.64554ZM10.1219 3.2816V4.99299H10.3219V3.2816H10.1219ZM10.2758 5.07725L11.0523 4.58091L10.9446 4.41239L10.168 4.90873L10.2758 5.07725ZM11.0983 4.50191L11.0983 4.50189L10.8986 4.49138L10.8986 4.49139L11.0983 4.50191ZM11.0523 4.58089C11.126 4.53381 11.2226 4.53381 11.2962 4.58089L11.4039 4.41237C11.2646 4.32332 11.084 4.32332 10.9446 4.41237L11.0523 4.58089ZM11.2962 4.58089L12.0728 5.07725L12.1805 4.90873L11.4039 4.41237L11.2962 4.58089ZM12.2267 4.99299V2.74364H12.0267V4.99299H12.2267Z" fill="#6A5AED"/>
</svg>
