<svg width="16" height="16" viewBox="0 0 16 16" fill="none" xmlns="http://www.w3.org/2000/svg">
<rect width="16" height="16" fill="white"/>
<path fill-rule="evenodd" clip-rule="evenodd" d="M2.31319 2.31307C2.50846 2.11781 2.82504 2.11781 3.0203 2.31307L13.687 12.9797C13.8822 13.175 13.8822 13.4916 13.687 13.6868C13.4917 13.8821 13.1751 13.8821 12.9799 13.6868L2.31319 3.02018C2.11793 2.82492 2.11793 2.50833 2.31319 2.31307Z" fill="#6A5AED"/>
<path fill-rule="evenodd" clip-rule="evenodd" d="M13.687 2.31307C13.8822 2.50833 13.8822 2.82492 13.687 3.02018L3.0203 13.6868C2.82504 13.8821 2.50846 13.8821 2.31319 13.6868C2.11793 13.4916 2.11793 13.175 2.31319 12.9797L12.9799 2.31307C13.1751 2.11781 13.4917 2.11781 13.687 2.31307Z" fill="#6A5AED"/>
</svg>
