<svg width="24" height="24" viewBox="0 0 24 24" fill="none" xmlns="http://www.w3.org/2000/svg">
<path d="M11.7778 4C10.8 4 10 4.8 10 5.77778C10 6.75556 10.8 7.55556 11.7778 7.55556C12.7556 7.55556 13.5556 6.75556 13.5556 5.77778C13.5556 4.8 12.7556 4 11.7778 4ZM11.7778 16.4444C10.8 16.4444 10 17.2444 10 18.2222C10 19.2 10.8 20 11.7778 20C12.7556 20 13.5556 19.2 13.5556 18.2222C13.5556 17.2444 12.7556 16.4444 11.7778 16.4444ZM11.7778 10.2222C10.8 10.2222 10 11.0222 10 12C10 12.9778 10.8 13.7778 11.7778 13.7778C12.7556 13.7778 13.5556 12.9778 13.5556 12C13.5556 11.0222 12.7556 10.2222 11.7778 10.2222Z" fill="#232426"/>
</svg>
