<svg width="24" height="24" viewBox="0 0 24 24" fill="none" xmlns="http://www.w3.org/2000/svg">
<g clip-path="url(#clip0_4309_8491)">
<path d="M8 2.5V5.5" stroke="#232426" stroke-width="1.5" stroke-miterlimit="10" stroke-linecap="round" stroke-linejoin="round"/>
<path d="M16 2.5V5.5" stroke="#232426" stroke-width="1.5" stroke-miterlimit="10" stroke-linecap="round" stroke-linejoin="round"/>
<path d="M3.5 9.58984H20.5" stroke="#232426" stroke-width="1.5" stroke-miterlimit="10" stroke-linecap="round" stroke-linejoin="round"/>
<path d="M21 9V17.5C21 20.5 19.5 22.5 16 22.5H8C4.5 22.5 3 20.5 3 17.5V9C3 6 4.5 4 8 4H16C19.5 4 21 6 21 9Z" stroke="#232426" stroke-width="1.5" stroke-miterlimit="10" stroke-linecap="round" stroke-linejoin="round"/>
<path d="M15.6937 14.1992H15.7027" stroke="#232426" stroke-width="2" stroke-linecap="round" stroke-linejoin="round"/>
<path d="M15.6937 17.1992H15.7027" stroke="#232426" stroke-width="2" stroke-linecap="round" stroke-linejoin="round"/>
<path d="M11.9945 14.1992H12.0035" stroke="#232426" stroke-width="2" stroke-linecap="round" stroke-linejoin="round"/>
<path d="M11.9945 17.1992H12.0035" stroke="#232426" stroke-width="2" stroke-linecap="round" stroke-linejoin="round"/>
<path d="M8.29529 14.1992H8.30427" stroke="#232426" stroke-width="2" stroke-linecap="round" stroke-linejoin="round"/>
<path d="M8.29529 17.1992H8.30427" stroke="#232426" stroke-width="2" stroke-linecap="round" stroke-linejoin="round"/>
</g>
<defs>
<clipPath id="clip0_4309_8491">
<rect width="24" height="24" fill="white"/>
</clipPath>
</defs>
</svg>
