<svg xmlns="http://www.w3.org/2000/svg" width="24" height="24" fill="none"><path fill="#232426" fill-rule="evenodd" d="M21.346 7.335a.75.75 0 0 1 .32 1.011c-.373.716-.926 1.358-1.602 1.912C18.18 11.802 15.24 12.75 12 12.75s-6.18-.948-8.064-2.492c-.676-.554-1.229-1.196-1.601-1.912a.75.75 0 0 1 1.33-.692c.263.503.672.993 1.222 1.444C6.44 10.37 9.017 11.25 12 11.25c2.982 0 5.56-.879 7.113-2.152.55-.451.96-.94 1.222-1.444a.75.75 0 0 1 1.011-.32Z" clip-rule="evenodd"/><path fill="#232426" fill-rule="evenodd" d="M14.294 11.276a.75.75 0 0 1 .919.53l1.035 3.864a.75.75 0 0 1-1.449.388l-1.035-3.864a.75.75 0 0 1 .53-.918ZM18.145 10.146a.75.75 0 0 1 1.061 0l2.829 2.828a.75.75 0 0 1-1.061 1.06l-2.829-2.828a.75.75 0 0 1 0-1.06ZM5.859 10.146a.75.75 0 0 1 0 1.06L3.03 14.035a.75.75 0 0 1-1.06-1.061l2.828-2.829a.75.75 0 0 1 1.06 0ZM9.694 11.276a.75.75 0 0 1 .53.918L9.19 16.058a.75.75 0 0 1-1.448-.388l1.035-3.864a.75.75 0 0 1 .918-.53Z" clip-rule="evenodd"/></svg>