<svg width="16" height="16" viewBox="0 0 16 16" fill="none" xmlns="http://www.w3.org/2000/svg">
<path fill-rule="evenodd" clip-rule="evenodd" d="M0.833374 7.00004C0.833374 3.5943 3.5943 0.833374 7.00004 0.833374C10.4058 0.833374 13.1667 3.5943 13.1667 7.00004C13.1667 10.4058 10.4058 13.1667 7.00004 13.1667C3.5943 13.1667 0.833374 10.4058 0.833374 7.00004ZM7.00004 1.83337C4.14658 1.83337 1.83337 4.14658 1.83337 7.00004C1.83337 9.8535 4.14658 12.1667 7.00004 12.1667C9.8535 12.1667 12.1667 9.8535 12.1667 7.00004C12.1667 4.14658 9.8535 1.83337 7.00004 1.83337Z" fill="#595959"/>
<path fill-rule="evenodd" clip-rule="evenodd" d="M10.7207 10.7203C10.9159 10.525 11.2325 10.525 11.4278 10.7203L14.2562 13.5487C14.4515 13.744 14.4515 14.0606 14.2562 14.2558C14.0609 14.4511 13.7444 14.4511 13.5491 14.2558L10.7207 11.4274C10.5254 11.2321 10.5254 10.9156 10.7207 10.7203Z" fill="#595959"/>
</svg>
