<svg width="32" height="32" viewBox="0 0 32 32" fill="none" xmlns="http://www.w3.org/2000/svg">
<g clip-path="url(#clip0_3603_33208)">
<path d="M13.0039 14C13.3979 14 13.788 13.9224 14.152 13.7716C14.5159 13.6209 14.8467 13.3999 15.1252 13.1213C15.4038 12.8427 15.6248 12.512 15.7755 12.1481C15.9263 11.7841 16.0039 11.394 16.0039 11C16.0039 10.606 15.9263 10.2159 15.7755 9.85195C15.6248 9.48797 15.4038 9.15726 15.1252 8.87868C14.8467 8.6001 14.5159 8.37913 14.152 8.22836C13.788 8.0776 13.3979 8 13.0039 8C12.2083 8 11.4452 8.31607 10.8826 8.87868C10.32 9.44129 10.0039 10.2044 10.0039 11C10.0039 11.7956 10.32 12.5587 10.8826 13.1213C11.4452 13.6839 12.2083 14 13.0039 14Z" fill="#929393" fill-opacity="0.4"/>
<path d="M28 28C28 29.0609 27.5786 30.0783 26.8284 30.8284C26.0783 31.5786 25.0609 32 24 32H8C6.93913 32 5.92172 31.5786 5.17157 30.8284C4.42143 30.0783 4 29.0609 4 28V4C4 2.93913 4.42143 1.92172 5.17157 1.17157C5.92172 0.421427 6.93913 0 8 0L19 0L28 9V28ZM8 2C7.46957 2 6.96086 2.21071 6.58579 2.58579C6.21071 2.96086 6 3.46957 6 4V24L10.448 19.552C10.6056 19.3947 10.8112 19.2946 11.0322 19.2674C11.2532 19.2402 11.477 19.2876 11.668 19.402L16 22L20.314 15.96C20.3984 15.842 20.5075 15.7437 20.6337 15.672C20.7599 15.6004 20.9002 15.5571 21.0448 15.5451C21.1895 15.5331 21.335 15.5527 21.4712 15.6026C21.6075 15.6525 21.7313 15.7315 21.834 15.834L26 20V9H22C21.2044 9 20.4413 8.68393 19.8787 8.12132C19.3161 7.55871 19 6.79565 19 6V2H8Z" fill="#929393" fill-opacity="0.4"/>
</g>
<defs>
<clipPath id="clip0_3603_33208">
<rect width="32" height="32" fill="white"/>
</clipPath>
</defs>
</svg>
