<svg xmlns="http://www.w3.org/2000/svg" width="16" height="16" viewBox="0 0 16 16" fill="none">
  <rect width="16" height="16" fill="white"/>
  <path fill-rule="evenodd" clip-rule="evenodd" d="M2.31442 2.31319C2.50968 2.11793 2.82626 2.11793 3.02152 2.31319L13.6882 12.9799C13.8835 13.1751 13.8835 13.4917 13.6882 13.687C13.4929 13.8822 13.1763 13.8822 12.9811 13.687L2.31442 3.0203C2.11915 2.82504 2.11915 2.50846 2.31442 2.31319Z" fill="#6A5AED"/>
  <path fill-rule="evenodd" clip-rule="evenodd" d="M13.6882 2.31319C13.8835 2.50846 13.8835 2.82504 13.6882 3.0203L3.02152 13.687C2.82626 13.8822 2.50968 13.8822 2.31442 13.687C2.11915 13.4917 2.11915 13.1751 2.31442 12.9799L12.9811 2.31319C13.1763 2.11793 13.4929 2.11793 13.6882 2.31319Z" fill="#6A5AED"/>
</svg>
