<svg width="24" height="25" viewBox="0 0 24 25" fill="none" xmlns="http://www.w3.org/2000/svg">
<path fill-rule="evenodd" clip-rule="evenodd" d="M1.25 11C1.25 5.89139 5.39139 1.75 10.5 1.75C15.6086 1.75 19.75 5.89139 19.75 11C19.75 16.1086 15.6086 20.25 10.5 20.25C5.39139 20.25 1.25 16.1086 1.25 11ZM10.5 3.25C6.21981 3.25 2.75 6.71981 2.75 11C2.75 15.2802 6.21981 18.75 10.5 18.75C14.7802 18.75 18.25 15.2802 18.25 11C18.25 6.71981 14.7802 3.25 10.5 3.25Z" fill="#929393"/>
<path fill-rule="evenodd" clip-rule="evenodd" d="M16.081 16.5805C16.3739 16.2876 16.8488 16.2876 17.1417 16.5805L21.3843 20.8232C21.6772 21.1161 21.6772 21.5909 21.3843 21.8838C21.0914 22.1767 20.6165 22.1767 20.3236 21.8838L16.081 17.6412C15.7881 17.3483 15.7881 16.8734 16.081 16.5805Z" fill="#929393"/>
</svg>
