<svg width="16" height="16" viewBox="0 0 16 16" fill="none" xmlns="http://www.w3.org/2000/svg">
<g id="Icons">
<path id="Union" fill-rule="evenodd" clip-rule="evenodd" d="M4.40477 1.49129C4.85423 1.01188 5.52139 0.833252 6.33208 0.833252H8.66547C9.47616 0.833252 10.1433 1.01188 10.5928 1.49129C11.0358 1.96384 11.1655 2.62237 11.1655 3.3333V4.1665H11.5002C12.244 4.1665 12.8936 4.35278 13.3538 4.81296C13.814 5.27314 14.0003 5.9228 14.0003 6.66655V9.99996C14.0003 10.7437 13.814 11.3934 13.3538 11.8536C12.8936 12.3137 12.244 12.5 11.5002 12.5H10.6665V12.6672C10.6665 13.411 10.4802 14.0606 10.02 14.5208C9.55983 14.981 8.91017 15.1673 8.16642 15.1673H6.83306C6.0893 15.1673 5.43965 14.981 4.97947 14.5208C4.51929 14.0606 4.33301 13.411 4.33301 12.6672V12.5H3.50005C2.75629 12.5 2.10664 12.3137 1.64646 11.8536C1.18628 11.3934 1 10.7437 1 9.99996V6.66655C1 5.9228 1.18628 5.27314 1.64646 4.81296C2.10664 4.35278 2.75629 4.1665 3.50005 4.1665H3.83203V3.3333C3.83203 2.62237 3.96176 1.96384 4.40477 1.49129ZM10.1655 4.1665H4.83203V3.3333C4.83203 2.71086 4.95231 2.36937 5.13431 2.17523C5.30987 1.98797 5.64273 1.83325 6.33208 1.83325H8.66547C9.35481 1.83325 9.68767 1.98797 9.86324 2.17523C10.0452 2.36937 10.1655 2.71086 10.1655 3.3333V4.1665ZM4.31925 5.1665H3.50005C2.91044 5.1665 2.56007 5.31357 2.35357 5.52007C2.14706 5.72657 2 6.07694 2 6.66655V9.99996C2 10.5896 2.14706 10.9399 2.35357 11.1464C2.56007 11.3529 2.91044 11.5 3.50005 11.5H4.33301V10.5005H4.16504C3.8889 10.5005 3.66504 10.2766 3.66504 10.0005C3.66504 9.72435 3.8889 9.50049 4.16504 9.50049H4.8103C4.81796 9.50014 4.82567 9.49996 4.83341 9.49996H10.1669C10.1746 9.49996 10.1823 9.50014 10.19 9.50049H10.8319C11.108 9.50049 11.3319 9.72435 11.3319 10.0005C11.3319 10.2766 11.108 10.5005 10.8319 10.5005H10.6669V11.5H11.5002C12.0898 11.5 12.4402 11.3529 12.6467 11.1464C12.8532 10.9399 13.0003 10.5896 13.0003 9.99996V6.66655C13.0003 6.07694 12.8532 5.72657 12.6467 5.52007C12.4402 5.31357 12.0898 5.1665 11.5002 5.1665H10.6783L10.6655 5.16666H4.33203L4.31925 5.1665ZM5.33341 12V10.5005H9.66647V12.6672C9.66647 13.2568 9.5194 13.6072 9.3129 13.8137C9.1064 14.0202 8.75603 14.1673 8.16642 14.1673H6.83306C6.24344 14.1673 5.89307 14.0202 5.68657 13.8137C5.48007 13.6072 5.33301 13.2568 5.33301 12.6672V12.0203C5.33328 12.0136 5.33341 12.0068 5.33341 12ZM4.16504 7.00015C3.98094 7.00015 3.8317 7.1494 3.8317 7.3335C3.8317 7.5176 3.98094 7.66684 4.16504 7.66684H6.16509C6.34919 7.66684 6.49843 7.5176 6.49843 7.3335C6.49843 7.1494 6.34919 7.00015 6.16509 7.00015H4.16504Z" fill="#6A5AED"/>
</g>
</svg>
