<svg width="16" height="16" viewBox="0 0 16 16" fill="none" xmlns="http://www.w3.org/2000/svg">
<path d="M7.77778 0C6.8 0 6 0.8 6 1.77778C6 2.75556 6.8 3.55556 7.77778 3.55556C8.75556 3.55556 9.55556 2.75556 9.55556 1.77778C9.55556 0.8 8.75556 0 7.77778 0ZM7.77778 12.4444C6.8 12.4444 6 13.2444 6 14.2222C6 15.2 6.8 16 7.77778 16C8.75556 16 9.55556 15.2 9.55556 14.2222C9.55556 13.2444 8.75556 12.4444 7.77778 12.4444ZM7.77778 6.22222C6.8 6.22222 6 7.02222 6 8C6 8.97778 6.8 9.77778 7.77778 9.77778C8.75556 9.77778 9.55556 8.97778 9.55556 8C9.55556 7.02222 8.75556 6.22222 7.77778 6.22222Z" fill="#929393"/>
</svg>
