<svg width="24" height="24" viewBox="0 0 24 24" fill="none" xmlns="http://www.w3.org/2000/svg">
<path d="M9.16055 10.37C9.06055 10.36 8.94055 10.36 8.83055 10.37C6.45055 10.29 4.56055 8.34 4.56055 5.94C4.56055 3.49 6.54055 1.5 9.00055 1.5C11.4505 1.5 13.4405 3.49 13.4405 5.94C13.4305 8.34 11.5405 10.29 9.16055 10.37Z" stroke-width="1.5" stroke-linecap="round" stroke-linejoin="round"/>
<path d="M16.4093 3.5C18.3493 3.5 19.9093 5.07 19.9093 7C19.9093 8.89 18.4093 10.43 16.5393 10.5C16.4593 10.49 16.3693 10.49 16.2793 10.5" stroke-width="1.5" stroke-linecap="round" stroke-linejoin="round"/>
<path d="M4.1607 14.06C1.7407 15.68 1.7407 18.32 4.1607 19.93C6.9107 21.77 11.4207 21.77 14.1707 19.93C16.5907 18.31 16.5907 15.67 14.1707 14.06C11.4307 12.23 6.9207 12.23 4.1607 14.06Z" stroke-width="1.5" stroke-linecap="round" stroke-linejoin="round"/>
<path d="M18.3398 19.5C19.0598 19.35 19.7398 19.06 20.2998 18.63C21.8598 17.46 21.8598 15.53 20.2998 14.36C19.7498 13.94 19.0798 13.66 18.3698 13.5" stroke-width="1.5" stroke-linecap="round" stroke-linejoin="round"/>
</svg>
