<svg width="16" height="16" viewBox="0 0 16 16" fill="none" xmlns="http://www.w3.org/2000/svg">
<path fill-rule="evenodd" clip-rule="evenodd" d="M1.66797 7.83317C1.66797 4.42931 4.43078 1.6665 7.83464 1.6665C11.2385 1.6665 14.0013 4.42931 14.0013 7.83317C14.0013 11.237 11.2385 13.9998 7.83464 13.9998C4.43078 13.9998 1.66797 11.237 1.66797 7.83317ZM7.83464 0.666504C3.87849 0.666504 0.667969 3.87703 0.667969 7.83317C0.667969 11.7893 3.87849 14.9998 7.83464 14.9998C11.7908 14.9998 15.0013 11.7893 15.0013 7.83317C15.0013 3.87703 11.7908 0.666504 7.83464 0.666504ZM8.08724 4.83984C8.08724 4.5637 7.86338 4.33984 7.58724 4.33984C7.3111 4.33984 7.08724 4.5637 7.08724 4.83984V7.57318C7.08724 7.89081 7.19482 8.20911 7.34457 8.4717C7.49418 8.73404 7.71287 8.98811 7.98498 9.14958L7.98567 9.14999L10.051 10.3825C10.2881 10.524 10.5951 10.4465 10.7366 10.2094C10.8781 9.97228 10.8006 9.66533 10.5635 9.52382L8.4968 8.29049L8.49547 8.2897C8.40791 8.23781 8.30017 8.12876 8.21324 7.97632C8.12633 7.82391 8.08724 7.67554 8.08724 7.57318V4.83984Z" fill="#6A5AED"/>
</svg>
