<svg xmlns="http://www.w3.org/2000/svg" width="24" height="24" fill="none"><path fill="#232426" fill-rule="evenodd" d="M1.25 4.5A.75.75 0 0 1 2 3.75h20a.75.75 0 0 1 .75.75v15a.75.75 0 0 1-.75.75H2a.75.75 0 0 1-.75-.75v-15Zm1.5.75v13.5h18.5V5.25H2.75Z" clip-rule="evenodd"/><path fill="#232426" fill-rule="evenodd" d="M1.4 4.05a.75.75 0 0 1 1.05-.15L12 11.062 21.55 3.9a.75.75 0 0 1 .9 1.2l-10 7.5a.75.75 0 0 1-.9 0l-10-7.5a.75.75 0 0 1-.15-1.05Z" clip-rule="evenodd"/><path fill="#232426" fill-rule="evenodd" d="M1.25 4.5A.75.75 0 0 1 2 3.75h10a.75.75 0 0 1 0 1.5H2.75V12a.75.75 0 0 1-1.5 0V4.5Z" clip-rule="evenodd"/><path fill="#232426" fill-rule="evenodd" d="M11.25 4.5a.75.75 0 0 1 .75-.75h10a.75.75 0 0 1 .75.75V12a.75.75 0 0 1-1.5 0V5.25H12a.75.75 0 0 1-.75-.75Z" clip-rule="evenodd"/></svg>