<svg width="24" height="24" viewBox="0 0 24 24" fill="none" xmlns="http://www.w3.org/2000/svg">
<path fill-rule="evenodd" clip-rule="evenodd" d="M11.75 2.5C10.9739 2.5 10.22 2.59559 9.49966 2.77565C9.49723 2.84691 9.48462 2.91827 9.46149 2.98754C9.05236 4.21282 8.7314 5.45982 8.4986 6.71916C10.6593 6.47691 12.8408 6.47691 15.0015 6.71917C14.7687 5.45982 14.4477 4.21283 14.0386 2.98754C14.0152 2.9173 14.0027 2.84604 14.0002 2.77562C13.2799 2.59558 12.5261 2.5 11.75 2.5ZM15.2414 8.25853C12.9234 7.9638 10.5767 7.96379 8.25866 8.25852C7.96391 10.5766 7.96391 12.9233 8.25866 15.2415C10.5767 15.5362 12.9234 15.5362 15.2414 15.2414C15.5362 12.9233 15.5362 10.5766 15.2414 8.25853ZM6.93723 6.93709C7.13071 5.78021 7.39444 4.63225 7.72843 3.49969C7.68258 3.49839 7.63776 3.49298 7.59433 3.4838C5.76838 4.40357 4.28893 5.91054 3.404 7.75671C4.56762 7.40923 5.74771 7.13602 6.93723 6.93709ZM2.77563 9.49973C2.84605 9.4973 2.9173 9.48482 2.98754 9.46137C4.21287 9.05222 5.45991 8.73125 6.7193 8.49846C6.47703 10.6592 6.47703 12.8407 6.7193 15.0015C5.45991 14.7687 4.21287 14.4478 2.98754 14.0386C2.91827 14.0155 2.84693 14.0029 2.77567 14.0004C2.5956 13.28 2.5 12.5262 2.5 11.75C2.5 10.9739 2.59559 10.2201 2.77563 9.49973ZM16.7808 8.49848C18.0402 8.73127 19.2872 9.05223 20.5125 9.46137C20.5827 9.48482 20.654 9.4973 20.7244 9.49973C20.9044 10.2201 21 10.9739 21 11.75C21 12.5262 20.9044 13.28 20.7243 14.0004C20.6531 14.0029 20.5817 14.0155 20.5125 14.0386C19.2872 14.4477 18.0402 14.7687 16.7808 15.0015C17.0231 12.8407 17.0231 10.6592 16.7808 8.49848ZM20.096 7.75671C18.9324 7.40924 17.7524 7.13603 16.5629 6.9371C16.3639 5.74762 16.0907 4.56756 15.7433 3.40398C17.6439 4.315 19.185 5.85611 20.096 7.75671ZM3.49969 15.7717C3.49839 15.8175 3.49298 15.8623 3.48382 15.9057C4.37647 17.6778 5.82222 19.1236 7.59433 20.0162C7.63776 20.007 7.68258 20.0016 7.72843 20.0003C7.39444 18.8677 7.13071 17.7198 6.93723 16.5629C5.7803 16.3694 4.6323 16.1057 3.49969 15.7717ZM15.0015 16.7808C12.8408 17.0231 10.6593 17.0231 8.4986 16.7808C8.73139 18.0402 9.05236 19.2872 9.46149 20.5125C9.48462 20.5817 9.49723 20.6531 9.49966 20.7244C10.22 20.9044 10.9739 21 11.75 21C12.5261 21 13.2799 20.9044 14.0002 20.7244C14.0027 20.654 14.0152 20.5827 14.0386 20.5125C14.4477 19.2872 14.7687 18.0402 15.0015 16.7808ZM15.7433 20.096C16.0907 18.9324 16.3639 17.7524 16.5629 16.5629C17.7198 16.3694 18.8677 16.1057 20.0003 15.7717C20.0016 15.8175 20.007 15.8623 20.0162 15.9057C19.0964 17.7316 17.5894 19.2111 15.7433 20.096ZM1 11.75C1 5.81294 5.81294 1 11.75 1C17.6871 1 22.5 5.81294 22.5 11.75C22.5 17.6871 17.6871 22.5 11.75 22.5C5.81294 22.5 1 17.6871 1 11.75Z" fill="#232426"/>
</svg>
