<svg width="24" height="25" viewBox="0 0 24 25" fill="none" xmlns="http://www.w3.org/2000/svg">
<path d="M12.0206 3.91016C8.71058 3.91016 6.02058 6.60016 6.02058 9.91016V12.8002C6.02058 13.4102 5.76058 14.3402 5.45058 14.8602L4.30058 16.7702C3.59058 17.9502 4.08058 19.2602 5.38058 19.7002C9.69058 21.1402 14.3406 21.1402 18.6506 19.7002C19.8606 19.3002 20.3906 17.8702 19.7306 16.7702L18.5806 14.8602C18.2806 14.3402 18.0206 13.4102 18.0206 12.8002V9.91016C18.0206 6.61016 15.3206 3.91016 12.0206 3.91016Z" stroke="#6A5AED" stroke-width="1.5" stroke-miterlimit="10" stroke-linecap="round"/>
<path d="M13.8699 4.19945C13.5599 4.10945 13.2399 4.03945 12.9099 3.99945C11.9499 3.87945 11.0299 3.94945 10.1699 4.19945C10.4599 3.45945 11.1799 2.93945 12.0199 2.93945C12.8599 2.93945 13.5799 3.45945 13.8699 4.19945Z" stroke="#6A5AED" stroke-width="1.5" stroke-miterlimit="10" stroke-linecap="round" stroke-linejoin="round"/>
<path d="M15.0195 20.0605C15.0195 21.7105 13.6695 23.0605 12.0195 23.0605C11.1995 23.0605 10.4395 22.7205 9.89953 22.1805C9.35953 21.6405 9.01953 20.8805 9.01953 20.0605" stroke="#6A5AED" stroke-width="1.5" stroke-miterlimit="10"/>
</svg>
