<svg width="16" height="16" viewBox="0 0 16 16" fill="none" xmlns="http://www.w3.org/2000/svg">
<path fill-rule="evenodd" clip-rule="evenodd" d="M0.833008 6.33329C0.833008 4.03212 2.69849 2.16663 4.99967 2.16663C6.17815 2.16663 7.24227 2.65621 7.99967 3.44177C8.75708 2.65621 9.8212 2.16663 10.9997 2.16663C13.3008 2.16663 15.1663 4.03212 15.1663 6.33329C15.1663 8.35868 13.9775 10.2288 12.5633 11.657C11.1442 13.0901 9.4124 14.1661 8.15735 14.5832C8.05499 14.6172 7.94436 14.6172 7.842 14.5832C6.58695 14.1661 4.85515 13.0901 3.43605 11.657C2.02182 10.2288 0.833008 8.35868 0.833008 6.33329ZM4.99967 3.16663C3.25077 3.16663 1.83301 4.5844 1.83301 6.33329C1.83301 7.97457 2.81086 9.60443 4.14663 10.9534C5.41409 12.2334 6.927 13.1818 7.99967 13.5788C9.07235 13.1818 10.5853 12.2334 11.8527 10.9534C13.1885 9.60443 14.1663 7.97457 14.1663 6.33329C14.1663 4.5844 12.7486 3.16663 10.9997 3.16663C9.92909 3.16663 8.98241 3.69743 8.40848 4.51244C8.31483 4.64544 8.16233 4.72456 7.99967 4.72456C7.83701 4.72456 7.68452 4.64544 7.59087 4.51244C7.01694 3.69743 6.07026 3.16663 4.99967 3.16663Z" fill="#6A5AED"/>
</svg>
