<svg width="40" height="40" viewBox="0 0 40 40" fill="none" xmlns="http://www.w3.org/2000/svg">
<path d="M26.5019 26.6695L19.8791 20.002L13.2563 26.6695" stroke="#6A5AED" stroke-width="1.5" stroke-linecap="round" stroke-linejoin="round"/>
<path d="M19.8794 20.002V35.004" stroke="#6A5AED" stroke-width="1.5" stroke-linecap="round" stroke-linejoin="round"/>
<path d="M33.7704 30.6533C35.3853 29.767 36.661 28.3645 37.3961 26.6671C38.1313 24.9698 38.2842 23.0743 37.8305 21.2799C37.3768 19.4854 36.3425 17.8941 34.8907 16.7572C33.439 15.6202 31.6525 15.0024 29.8133 15.0012H27.7271C27.226 13.0496 26.2919 11.2379 24.9951 9.70211C23.6984 8.16633 22.0727 6.94649 20.2402 6.13431C18.4078 5.32213 16.4163 4.93873 14.4156 5.01295C12.4148 5.08717 10.4567 5.61706 8.68862 6.5628C6.92052 7.50854 5.38839 8.84551 4.2074 10.4732C3.02641 12.1009 2.22731 13.9769 1.87016 15.9603C1.51301 17.9437 1.60711 19.9827 2.14539 21.9242C2.68367 23.8657 3.65212 25.6591 4.97793 27.1695" stroke="#6A5AED" stroke-width="1.5" stroke-linecap="round" stroke-linejoin="round"/>
<path d="M26.5019 26.6695L19.8791 20.002L13.2563 26.6695" stroke="#6A5AED" stroke-width="1.5" stroke-linecap="round" stroke-linejoin="round"/>
</svg>
