<svg width="20" height="20" viewBox="0 0 20 20" fill="none" xmlns="http://www.w3.org/2000/svg">
<path fill-rule="evenodd" clip-rule="evenodd" d="M10.2689 3.8517C10.1976 3.78658 10.1008 3.75 9.99985 3.75C9.89894 3.75 9.80215 3.78658 9.7308 3.8517L5.11145 8.06698C4.96285 8.20258 4.96285 8.42243 5.11145 8.55802C5.26004 8.69362 5.50097 8.69362 5.64957 8.55802L9.61932 4.93552V15.9028C9.61932 16.0945 9.78968 16.25 9.99983 16.25C10.21 16.25 10.3803 16.0945 10.3803 15.9028V4.93547L14.3501 8.55802C14.4987 8.69362 14.7397 8.69362 14.8883 8.55802C15.0369 8.42243 15.0369 8.20258 14.8883 8.06698L10.2689 3.8517Z" fill="white"/>
</svg>
