<svg width="29" height="28" viewBox="0 0 29 28" fill="none" xmlns="http://www.w3.org/2000/svg">
<path fill-rule="evenodd" clip-rule="evenodd" d="M1.66602 13.7082C1.66602 6.7816 7.28111 1.1665 14.2077 1.1665C21.1343 1.1665 26.7494 6.7816 26.7494 13.7082C26.7494 20.6347 21.1343 26.2498 14.2077 26.2498C7.28111 26.2498 1.66602 20.6347 1.66602 13.7082ZM14.2077 2.9165C8.24761 2.9165 3.41602 7.7481 3.41602 13.7082C3.41602 19.6682 8.24761 24.4998 14.2077 24.4998C20.1678 24.4998 24.9994 19.6682 24.9994 13.7082C24.9994 7.7481 20.1678 2.9165 14.2077 2.9165Z" fill="white"/>
<path fill-rule="evenodd" clip-rule="evenodd" d="M11.4375 8.90922C11.7082 8.75292 12.0418 8.75292 12.3125 8.90922L19.3125 12.9507C19.5832 13.107 19.75 13.3958 19.75 13.7084C19.75 14.021 19.5832 14.3099 19.3125 14.4662L12.3125 18.5077C12.0418 18.664 11.7082 18.664 11.4375 18.5077C11.1668 18.3514 11 18.0625 11 17.7499V9.66699C11 9.35438 11.1668 9.06552 11.4375 8.90922ZM12.75 11.1825V16.2343L17.125 13.7084L12.75 11.1825Z" fill="white"/>
</svg>
