<svg width="17" height="17" viewBox="0 0 17 17" fill="none" xmlns="http://www.w3.org/2000/svg">
<path d="M14.5 4.48665C12.28 4.26665 10.0467 4.15332 7.82 4.15332C6.5 4.15332 5.18 4.21999 3.86 4.35332L2.5 4.48665" stroke="#232426" stroke-linecap="round" stroke-linejoin="round"/>
<path d="M6.16675 3.81325L6.31341 2.93992C6.42008 2.30659 6.50008 1.83325 7.62675 1.83325H9.37341C10.5001 1.83325 10.5867 2.33325 10.6867 2.94659L10.8334 3.81325" stroke="#232426" stroke-linecap="round" stroke-linejoin="round"/>
<path d="M13.0667 6.59326L12.6334 13.3066C12.56 14.3533 12.5 15.1666 10.64 15.1666H6.36002C4.50002 15.1666 4.44002 14.3533 4.36668 13.3066L3.93335 6.59326" stroke="#232426" stroke-linecap="round" stroke-linejoin="round"/>
<path d="M7.38672 11.5H9.60672" stroke="#232426" stroke-linecap="round" stroke-linejoin="round"/>
<path d="M6.83325 8.83325H10.1666" stroke="#232426" stroke-linecap="round" stroke-linejoin="round"/>
</svg>
