<svg width="24" height="24" viewBox="0 0 24 24" fill="none" xmlns="http://www.w3.org/2000/svg">
<path d="M12.0206 3.41016C8.71058 3.41016 6.02058 6.10016 6.02058 9.41016V12.3002C6.02058 12.9102 5.76058 13.8402 5.45058 14.3602L4.30058 16.2702C3.59058 17.4502 4.08058 18.7602 5.38058 19.2002C9.69058 20.6402 14.3406 20.6402 18.6506 19.2002C19.8606 18.8002 20.3906 17.3702 19.7306 16.2702L18.5806 14.3602C18.2806 13.8402 18.0206 12.9102 18.0206 12.3002V9.41016C18.0206 6.11016 15.3206 3.41016 12.0206 3.41016Z" stroke="#232426" stroke-width="1.5" stroke-miterlimit="10" stroke-linecap="round"/>
<path d="M13.8699 3.69945C13.5599 3.60945 13.2399 3.53945 12.9099 3.49945C11.9499 3.37945 11.0299 3.44945 10.1699 3.69945C10.4599 2.95945 11.1799 2.43945 12.0199 2.43945C12.8599 2.43945 13.5799 2.95945 13.8699 3.69945Z" stroke="#232426" stroke-width="1.5" stroke-miterlimit="10" stroke-linecap="round" stroke-linejoin="round"/>
<path d="M15.0195 19.5605C15.0195 21.2105 13.6695 22.5605 12.0195 22.5605C11.1995 22.5605 10.4395 22.2205 9.89953 21.6805C9.35953 21.1405 9.01953 20.3805 9.01953 19.5605" stroke="#232426" stroke-width="1.5" stroke-miterlimit="10"/>
</svg>
